<?xml version="1.0" encoding="UTF-8"?>
<!DOCTYPE svg PUBLIC "-//W3C//DTD SVG 1.1//EN" "http://www.w3.org/Graphics/SVG/1.1/DTD/svg11.dtd">
<svg xmlns="http://www.w3.org/2000/svg" version="1.1" width="512px" height="512px" style="shape-rendering:geometricPrecision; text-rendering:geometricPrecision; image-rendering:optimizeQuality; fill-rule:evenodd; clip-rule:evenodd" xmlns:xlink="http://www.w3.org/1999/xlink">
<g><path style="opacity:1" fill="#929392" d="M 249.5,79.5 C 259.36,77.3496 266.527,80.6829 271,89.5C 271.167,165.169 271.667,240.836 272.5,316.5C 291.023,301.476 309.689,286.643 328.5,272C 342.592,267.542 350.925,272.542 353.5,287C 352.643,292.716 349.976,297.383 345.5,301C 318.833,322.333 292.167,343.667 265.5,365C 258.833,368.333 252.167,368.333 245.5,365C 218.833,343.667 192.167,322.333 165.5,301C 160.854,295.689 159.354,289.523 161,282.5C 165.583,273.458 172.75,270.291 182.5,273C 201.596,286.927 220.262,301.427 238.5,316.5C 239.333,240.836 239.833,165.169 240,89.5C 242.022,84.98 245.189,81.6467 249.5,79.5 Z"/></g>
<g><path style="opacity:1" fill="#929392" d="M 73.5,303.5 C 83.36,301.35 90.5267,304.683 95,313.5C 95.3333,336.833 95.6667,360.167 96,383.5C 97.1667,392.667 102.333,397.833 111.5,399C 207.5,399.667 303.5,399.667 399.5,399C 408.667,397.833 413.833,392.667 415,383.5C 415.333,360.167 415.667,336.833 416,313.5C 420.473,304.518 427.64,301.351 437.5,304C 442,305.833 445.167,309 447,313.5C 447.667,340.167 447.667,366.833 447,393.5C 441.833,413.333 429.333,425.833 409.5,431C 306.833,431.667 204.167,431.667 101.5,431C 81.6667,425.833 69.1667,413.333 64,393.5C 63.3333,366.833 63.3333,340.167 64,313.5C 66.0223,308.98 69.189,305.647 73.5,303.5 Z"/></g>
</svg>
