<?xml version="1.0" encoding="UTF-8"?>
<!DOCTYPE svg PUBLIC "-//W3C//DTD SVG 1.1//EN" "http://www.w3.org/Graphics/SVG/1.1/DTD/svg11.dtd">
<svg xmlns="http://www.w3.org/2000/svg" version="1.1" width="512px" height="492px" style="shape-rendering:geometricPrecision; text-rendering:geometricPrecision; image-rendering:optimizeQuality; fill-rule:evenodd; clip-rule:evenodd" xmlns:xlink="http://www.w3.org/1999/xlink">
<g><path style="opacity:0.963" fill="#2e7af0" d="M 412.5,-0.5 C 416.833,-0.5 421.167,-0.5 425.5,-0.5C 430.377,2.20254 434.877,5.53588 439,9.5C 443.193,15.6472 443.526,21.9805 440,28.5C 353.333,180.5 266.667,332.5 180,484.5C 177.604,487.067 175.104,489.4 172.5,491.5C 167.833,491.5 163.167,491.5 158.5,491.5C 155.402,489.108 152.069,486.942 148.5,485C 143.048,479.972 141.215,473.806 143,466.5C 155.773,443.122 168.94,419.955 182.5,397C 144.922,383.722 111.256,364.056 81.5,338C 50.2526,309.608 22.9193,278.108 -0.5,243.5C -0.5,240.167 -0.5,236.833 -0.5,233.5C 25.5851,194.232 56.9184,159.399 93.5,129C 126.013,102.743 162.68,84.4099 203.5,74C 256.185,62.5206 307.019,68.0206 356,90.5C 372.371,63.1097 388.371,35.443 404,7.5C 406.074,3.92315 408.907,1.25648 412.5,-0.5 Z M 239.5,112.5 C 272.619,110.297 304.286,115.964 334.5,129.5C 326.253,144.33 317.753,158.997 309,173.5C 283.338,151.682 254.838,147.182 223.5,160C 188.41,179.335 172.577,209.168 176,249.5C 182.258,280.767 200.425,301.933 230.5,313C 222.207,327.085 214.04,341.252 206,355.5C 205.311,356.357 204.478,357.023 203.5,357.5C 165.508,345.18 131.841,325.68 102.5,299C 85.8601,283.7 70.6934,267.2 57,249.5C 52.3333,242.167 52.3333,234.833 57,227.5C 84.3111,191.176 117.478,161.676 156.5,139C 182.528,124.6 210.195,115.767 239.5,112.5 Z M 255.5,196.5 C 268.64,197.233 278.974,202.9 286.5,213.5C 276.2,232.295 265.7,250.961 255,269.5C 254.255,270.99 253.088,271.99 251.5,272.5C 234.996,269.491 223.829,260.158 218,244.5C 215.725,224.213 223.558,209.38 241.5,200C 246.184,198.347 250.85,197.181 255.5,196.5 Z"/></g>
<g><path style="opacity:0.958" fill="#2e7af0" d="M 511.5,232.5 C 511.5,236.5 511.5,240.5 511.5,244.5C 487.382,280.135 459.048,312.301 426.5,341C 391.841,370.833 352.175,391.5 307.5,403C 294.632,405.815 281.632,407.648 268.5,408.5C 276.488,392.363 285.154,376.53 294.5,361C 340.992,348.93 381.325,326.263 415.5,293C 429.073,279.431 441.906,265.265 454,250.5C 458.667,242.5 458.667,234.5 454,226.5C 438.584,206.749 421.417,188.582 402.5,172C 409.484,159.677 416.484,147.343 423.5,135C 424.167,134.333 424.833,134.333 425.5,135C 458.38,164.031 487.047,196.531 511.5,232.5 Z"/></g>
</svg>
