<?xml version="1.0" encoding="UTF-8"?>
<!DOCTYPE svg PUBLIC "-//W3C//DTD SVG 1.1//EN" "http://www.w3.org/Graphics/SVG/1.1/DTD/svg11.dtd">
<svg xmlns="http://www.w3.org/2000/svg" version="1.1" width="511px" height="512px" style="shape-rendering:geometricPrecision; text-rendering:geometricPrecision; image-rendering:optimizeQuality; fill-rule:evenodd; clip-rule:evenodd" xmlns:xlink="http://www.w3.org/1999/xlink">
<g><path style="opacity:0.446" fill="#fefffe" d="M 507.5,-0.5 C 508.5,-0.5 509.5,-0.5 510.5,-0.5C 510.5,0.166667 510.5,0.833333 510.5,1.5C 508.821,1.71481 507.821,1.04814 507.5,-0.5 Z"/></g>
<g><path style="opacity:0.96" fill="#2e7af0" d="M 236.5,99.5 C 287.31,96.4524 334.31,108.286 377.5,135C 423.289,165.123 461.456,202.956 492,248.5C 495.404,254.579 494.737,260.246 490,265.5C 462.958,304.877 430.125,338.71 391.5,367C 311.348,421.19 228.348,425.856 142.5,381C 90.2019,349.702 48.2019,308.035 16.5,256C 47.7959,203.371 89.7959,161.371 142.5,130C 171.972,113.675 203.306,103.508 236.5,99.5 Z M 247.5,139.5 C 296.298,139.582 339.964,154.415 378.5,184C 402.706,202.539 423.872,224.039 442,248.5C 444.355,255.367 443.355,261.701 439,267.5C 414.477,298.031 385.644,323.531 352.5,344C 279.958,383.344 209.625,379.677 141.5,333C 115.113,313.615 91.6129,291.115 71,265.5C 67.6667,258.833 67.6667,252.167 71,245.5C 96.3063,212.512 126.806,185.679 162.5,165C 189.114,150.291 217.447,141.791 247.5,139.5 Z M 250.5,217.5 C 276.71,217.876 290.21,231.21 291,257.5C 284.992,279.092 270.825,288.592 248.5,286C 227.695,280.224 218.528,266.724 221,245.5C 225.858,230.806 235.691,221.473 250.5,217.5 Z"/></g>
<g><path style="opacity:0.959" fill="#2e7af0" d="M 253.5,176.5 C 294.068,178.567 319.568,199.234 330,238.5C 334.048,276.91 318.881,304.744 284.5,322C 250.741,333.383 221.575,326.216 197,300.5C 177.087,272.093 175.754,242.76 193,212.5C 207.462,190.854 227.629,178.854 253.5,176.5 Z M 250.5,217.5 C 235.691,221.473 225.858,230.806 221,245.5C 218.528,266.724 227.695,280.224 248.5,286C 270.825,288.592 284.992,279.092 291,257.5C 290.21,231.21 276.71,217.876 250.5,217.5 Z"/></g>
<g><path style="opacity:0.055" fill="#fefffe" d="M -0.5,509.5 C 0.338246,509.842 0.67158,510.508 0.5,511.5C 0.166667,511.5 -0.166667,511.5 -0.5,511.5C -0.5,510.833 -0.5,510.167 -0.5,509.5 Z"/></g>
</svg>
