<?xml version="1.0" standalone="no"?>
<!DOCTYPE svg PUBLIC "-//W3C//DTD SVG 20010904//EN"
 "http://www.w3.org/TR/2001/REC-SVG-20010904/DTD/svg10.dtd">
<svg version="1.0" xmlns="http://www.w3.org/2000/svg"
 width="512.000000pt" height="512.000000pt" viewBox="0 0 512.000000 512.000000"
 preserveAspectRatio="xMidYMid meet">

<g transform="translate(0.000000,512.000000) scale(0.100000,-0.100000)"
fill="#000000" stroke="none">
<path d="M0 2560 l0 -2560 2560 0 2560 0 0 2560 0 2560 -2560 0 -2560 0 0
-2560z m3390 1460 l0 -310 -216 0 c-245 0 -266 -5 -315 -73 l-29 -40 0 -219 0
-218 278 0 278 0 -12 -137 c-7 -76 -22 -208 -33 -294 -12 -86 -21 -160 -21
-163 0 -3 -112 -6 -250 -6 l-250 0 0 -885 0 -885 -365 0 -365 0 0 885 0 885
-180 0 -180 0 0 300 0 300 180 0 180 0 0 278 c0 152 5 306 10 342 47 301 223
476 540 535 42 9 184 13 408 14 l342 1 0 -310z"/>
</g>
</svg>
