<?xml version="1.0" encoding="UTF-8"?>
<!DOCTYPE svg PUBLIC "-//W3C//DTD SVG 1.1//EN" "http://www.w3.org/Graphics/SVG/1.1/DTD/svg11.dtd">
<svg xmlns="http://www.w3.org/2000/svg" version="1.1" width="512px" height="512px" style="shape-rendering:geometricPrecision; text-rendering:geometricPrecision; image-rendering:optimizeQuality; fill-rule:evenodd; clip-rule:evenodd" xmlns:xlink="http://www.w3.org/1999/xlink">
<g><path style="opacity:1" fill="#929392" d="M 74.5,63.5 C 195.167,63.3333 315.834,63.5 436.5,64C 462.904,72.0944 474.404,89.9277 471,117.5C 469.833,123.674 467.499,129.34 464,134.5C 414.036,190.133 363.703,245.466 313,300.5C 311.681,332.748 311.014,365.081 311,397.5C 310.333,398.833 309.667,400.167 309,401.5C 280.409,425.428 251.243,448.594 221.5,471C 211.64,473.649 204.473,470.482 200,461.5C 199.992,407.751 199.325,354.084 198,300.5C 148.667,246.5 99.3333,192.5 50,138.5C 38.8191,123.502 36.4858,107.168 43,89.5C 49.5997,75.97 60.0997,67.3034 74.5,63.5 Z M 84.5,95.5 C 198.5,95.3333 312.5,95.5 426.5,96C 435.885,97.5983 439.719,103.098 438,112.5C 386.37,170.465 334.37,228.132 282,285.5C 281.333,286.833 280.667,288.167 280,289.5C 279.833,320.839 279.333,352.172 278.5,383.5C 263.167,395.833 247.833,408.167 232.5,420.5C 231.667,376.837 231.167,333.17 231,289.5C 227.715,284.546 224.048,279.88 220,275.5C 170.26,221.764 121.26,167.431 73,112.5C 71.1615,102.858 74.9948,97.1918 84.5,95.5 Z"/></g>
</svg>
