<?xml version="1.0" standalone="no"?>
<!DOCTYPE svg PUBLIC "-//W3C//DTD SVG 20010904//EN"
 "http://www.w3.org/TR/2001/REC-SVG-20010904/DTD/svg10.dtd">
<svg version="1.0" xmlns="http://www.w3.org/2000/svg"
 width="512.000000pt" height="512.000000pt" viewBox="0 0 512.000000 512.000000"
 preserveAspectRatio="xMidYMid meet">

<g transform="translate(0.000000,512.000000) scale(0.100000,-0.100000)"
fill="#000000" stroke="none">
<path d="M0 2560 l0 -2560 2560 0 2560 0 0 2560 0 2560 -2560 0 -2560 0 0
-2560z m3607 1754 c189 -39 318 -109 458 -249 140 -140 210 -269 249 -458 14
-66 16 -203 16 -1047 0 -844 -2 -981 -16 -1047 -39 -189 -109 -318 -249 -458
-140 -140 -269 -210 -458 -249 -66 -14 -203 -16 -1047 -16 -844 0 -981 2
-1047 16 -189 39 -318 109 -458 249 -140 140 -210 269 -249 458 -14 66 -16
203 -16 1047 0 844 2 981 16 1047 39 189 109 318 249 458 138 138 268 209 452
249 106 22 1990 23 2100 0z"/>
<path d="M1614 3940 c-200 -30 -360 -170 -421 -366 -17 -55 -18 -119 -18
-1014 0 -895 1 -959 18 -1014 53 -170 183 -301 352 -353 56 -17 117 -18 1015
-18 898 0 959 1 1015 18 169 52 300 183 352 352 17 56 18 117 18 1015 0 898
-1 959 -18 1015 -51 166 -178 294 -348 351 -51 17 -114 19 -984 20 -511 1
-953 -2 -981 -6z m1988 -251 c84 -42 131 -145 108 -237 -42 -178 -279 -223
-384 -74 -42 59 -48 151 -16 217 51 106 183 148 292 94z m-892 -230 c92 -14
217 -59 307 -110 108 -61 271 -224 332 -332 162 -288 162 -626 0 -914 -61
-108 -224 -271 -332 -332 -288 -162 -626 -162 -914 0 -108 61 -271 224 -332
332 -162 288 -162 626 0 914 61 108 224 271 332 332 86 49 215 96 297 110 77
12 233 13 310 0z"/>
<path d="M2495 3084 c-208 -32 -382 -182 -442 -384 -22 -72 -22 -208 0 -280
52 -175 192 -315 367 -367 32 -10 90 -17 140 -17 50 0 108 7 140 17 175 52
315 192 367 367 22 72 22 208 0 280 -51 172 -192 315 -359 365 -53 15 -167 25
-213 19z"/>
</g>
</svg>
