<?xml version="1.0" encoding="UTF-8"?>
<!DOCTYPE svg PUBLIC "-//W3C//DTD SVG 1.1//EN" "http://www.w3.org/Graphics/SVG/1.1/DTD/svg11.dtd">
<svg xmlns="http://www.w3.org/2000/svg" version="1.1" width="512px" height="512px" style="shape-rendering:geometricPrecision; text-rendering:geometricPrecision; image-rendering:optimizeQuality; fill-rule:evenodd; clip-rule:evenodd" xmlns:xlink="http://www.w3.org/1999/xlink">
<g><path style="opacity:1" fill="#929392" d="M 194.5,-0.5 C 208.167,-0.5 221.833,-0.5 235.5,-0.5C 313.082,10.0384 369.248,50.3717 404,120.5C 431.745,187.143 427.745,251.81 392,314.5C 386.555,322.945 380.721,331.112 374.5,339C 416,382.5 457.5,426 499,469.5C 507.34,488.658 502.173,502.658 483.5,511.5C 478.5,511.5 473.5,511.5 468.5,511.5C 465.437,510.301 462.437,508.801 459.5,507C 417.333,463.5 375.167,420 333,376.5C 282.477,410.603 227.31,421.103 167.5,408C 89.4556,386.955 38.6223,337.789 15,260.5C -4.00855,177.999 17.1581,107.832 78.5,50C 111.999,21.4395 150.666,4.60622 194.5,-0.5 Z M 211.5,53.5 C 281.476,56.2127 330.309,89.5461 358,153.5C 376.597,210.844 366.597,262.511 328,308.5C 280.139,356.505 223.972,369.672 159.5,348C 109.953,326.782 78.7868,289.948 66,237.5C 55.5918,174.179 75.4252,122.679 125.5,83C 151.395,64.869 180.061,55.0357 211.5,53.5 Z"/></g>
</svg>
