<?xml version="1.0" encoding="UTF-8"?>
<!DOCTYPE svg PUBLIC "-//W3C//DTD SVG 1.1//EN" "http://www.w3.org/Graphics/SVG/1.1/DTD/svg11.dtd">
<svg xmlns="http://www.w3.org/2000/svg" version="1.1" width="512px" height="512px" style="shape-rendering:geometricPrecision; text-rendering:geometricPrecision; image-rendering:optimizeQuality; fill-rule:evenodd; clip-rule:evenodd" xmlns:xlink="http://www.w3.org/1999/xlink">
<g><path style="opacity:0.997" fill="#000000" d="M -0.5,-0.5 C 170.167,-0.5 340.833,-0.5 511.5,-0.5C 511.5,170.167 511.5,340.833 511.5,511.5C 340.833,511.5 170.167,511.5 -0.5,511.5C -0.5,340.833 -0.5,170.167 -0.5,-0.5 Z M 421.5,101.5 C 427.457,101.954 431.124,105.121 432.5,111C 412.097,207.78 391.93,304.613 372,401.5C 369.661,408.275 365.161,410.442 358.5,408C 329.778,386.945 300.778,366.278 271.5,346C 266.889,344.993 262.555,345.66 258.5,348C 243.5,360.333 228.5,372.667 213.5,385C 207.838,388.8 203.004,387.967 199,382.5C 188.266,348.131 177.432,313.797 166.5,279.5C 139.548,269.238 112.548,259.071 85.5,249C 76.007,242.472 76.3404,236.472 86.5,231C 198.255,187.778 309.922,144.612 421.5,101.5 Z"/></g>
<g><path style="opacity:0.948" fill="#000000" d="M 351.5,164.5 C 356.457,164.262 357.957,166.262 356,170.5C 312,211.167 268,251.833 224,292.5C 220.644,295.876 218.31,299.876 217,304.5C 214.907,317.482 212.907,330.482 211,343.5C 209.192,345.396 207.025,345.896 204.5,345C 197.164,323.839 190.664,302.339 185,280.5C 184.411,275.519 185.411,270.852 188,266.5C 242.48,232.35 296.98,198.35 351.5,164.5 Z"/></g>
</svg>
